<svg width="20" height="11" viewBox="0 0 20 11" fill="none" xmlns="http://www.w3.org/2000/svg">
<path d="M15.279 6.11114H4.27902C3.9368 6.11114 3.66791 5.84225 3.66791 5.50003C3.66791 5.1578 3.9368 4.88892 4.27902 4.88892H15.279C15.6212 4.88892 15.8901 5.1578 15.8901 5.50003C15.8901 5.84225 15.6212 6.11114 15.279 6.11114Z" fill="#3B82F6"/>
<path d="M12.2234 10.3889C12.1433 10.3899 12.0638 10.3741 11.9901 10.3425C11.9165 10.3109 11.8502 10.2643 11.7956 10.2056C11.5512 9.96111 11.5512 9.58222 11.7956 9.33778L15.6456 5.48778L11.7956 1.63778C11.5512 1.39334 11.5512 1.01445 11.7956 0.770003C12.0401 0.525559 12.419 0.525559 12.6634 0.770003L16.9412 5.04778C17.1856 5.29223 17.1856 5.67111 16.9412 5.91556L12.6634 10.1933C12.5412 10.3156 12.3823 10.3767 12.2356 10.3767L12.2234 10.3889Z" fill="#3B82F6"/>
</svg>
