<svg width="19" height="18" viewBox="0 0 19 18" fill="none" xmlns="http://www.w3.org/2000/svg">
<path d="M0.849609 2.81483C0.849609 2.23762 1.05232 1.76143 1.45772 1.38626C1.86312 1.01107 2.39016 0.823486 3.0388 0.823486C3.67587 0.823486 4.1913 1.00818 4.58513 1.3776C4.99053 1.75855 5.19324 2.25493 5.19324 2.86678C5.19324 3.42089 4.99633 3.88264 4.6025 4.25206C4.19711 4.63301 3.66428 4.82348 3.00405 4.82348H2.98668C2.3496 4.82348 1.83417 4.63301 1.44034 4.25206C1.04651 3.8711 0.849609 3.39202 0.849609 2.81483ZM1.07548 17.9663V6.39924H4.93262V17.9663H1.07548ZM7.06969 17.9663H10.9268V11.5075C10.9268 11.1034 10.9732 10.7917 11.0658 10.5724C11.228 10.1799 11.4741 9.848 11.8042 9.57673C12.1344 9.30544 12.5484 9.1698 13.0465 9.1698C14.3438 9.1698 14.9925 10.0414 14.9925 11.7845V17.9663H18.8496V11.3343C18.8496 9.62579 18.4442 8.32998 17.6334 7.44686C16.8226 6.56374 15.7512 6.12219 14.4191 6.12219C12.9249 6.12219 11.7608 6.76288 10.9268 8.04426V8.0789H10.9095L10.9268 8.04426V6.39924H7.06969C7.09285 6.76864 7.10444 7.91727 7.10444 9.84513C7.10444 11.773 7.09285 14.48 7.06969 17.9663Z" fill="#7C3AED"/>
</svg>
