<svg width="30" height="30" viewBox="0 0 30 30" fill="none" xmlns="http://www.w3.org/2000/svg">
<path fill-rule="evenodd" clip-rule="evenodd" d="M12.0687 4.24998C13.0887 4.58156 14.0711 5.01894 15 5.55498C15.9289 5.01894 16.9113 4.58156 17.9313 4.24998C20.4862 3.44248 23.0312 3.58623 24.7225 5.27748C26.4137 6.96873 26.5575 9.51498 25.75 12.0687C25.4184 13.0887 24.981 14.0711 24.445 15C25.015 16.0037 25.4513 16.9875 25.75 17.9312C26.5575 20.485 26.4137 23.0312 24.7225 24.7225C23.0312 26.4137 20.485 26.5575 17.9313 25.75C16.9113 25.4184 15.9289 24.981 15 24.445C14.0711 24.981 13.0887 25.4184 12.0687 25.75C9.515 26.5562 6.96875 26.4137 5.2775 24.7225C3.58625 23.0312 3.44375 20.485 4.25 17.9312C4.54875 16.9862 4.985 16.0037 5.555 15C5.01896 14.0711 4.58158 13.0887 4.25 12.0687C3.44375 9.51373 3.5875 6.96873 5.2775 5.27748C6.96875 3.58623 9.515 3.44248 12.0687 4.24998ZM22.8625 17.3862C22.125 18.3587 21.27 19.3362 20.3037 20.3037C19.3899 21.221 18.4152 22.0754 17.3863 22.8612C17.8354 23.0662 18.2683 23.2346 18.685 23.3662C20.8075 24.0362 22.205 23.7037 22.955 22.9537C23.705 22.205 24.0375 20.8062 23.3675 18.685C23.2262 18.2416 23.0576 17.8075 22.8625 17.385V17.3862ZM7.1375 17.3862C6.94292 17.8083 6.77468 18.2421 6.63375 18.685C5.96375 20.8075 6.29625 22.205 7.04625 22.955C7.795 23.705 9.19375 24.0362 11.315 23.3662C11.7317 23.2346 12.165 23.0662 12.615 22.8612C11.586 22.0754 10.6113 21.221 9.6975 20.3037C8.77985 19.39 7.92374 18.4153 7.1375 17.3862ZM15 8.49998C13.7328 9.37724 12.5494 10.3698 11.465 11.465C10.3698 12.5494 9.37726 13.7328 8.5 15C9.37646 16.2671 10.3682 17.4505 11.4625 18.535C12.6663 19.7387 13.8575 20.7225 15 21.5C16.2672 20.6227 17.4506 19.6302 18.535 18.535C19.6298 17.4505 20.6219 16.2671 21.4987 15C20.624 13.7316 19.6322 12.548 18.5363 11.465C17.4514 10.3697 16.2676 9.37718 15 8.49998ZM15 13.125C15.4973 13.125 15.9742 13.3225 16.3258 13.6742C16.6775 14.0258 16.875 14.5027 16.875 15C16.875 15.4973 16.6775 15.9742 16.3258 16.3258C15.9742 16.6774 15.4973 16.875 15 16.875C14.5027 16.875 14.0258 16.6774 13.6742 16.3258C13.3225 15.9742 13.125 15.4973 13.125 15C13.125 14.5027 13.3225 14.0258 13.6742 13.6742C14.0258 13.3225 14.5027 13.125 15 13.125ZM7.045 7.04498C6.295 7.79498 5.96375 9.19248 6.63375 11.315C6.76542 11.7316 6.93375 12.165 7.13875 12.615C7.87625 11.64 8.73 10.6637 9.6975 9.69623C10.6109 8.77906 11.5852 7.92461 12.6137 7.13873C12.1917 6.94372 11.7579 6.77507 11.315 6.63373C9.19375 5.96373 7.795 6.29623 7.045 7.04498ZM18.685 6.63373C18.2683 6.7654 17.8354 6.93373 17.3863 7.13873C18.3588 7.87623 19.3363 8.72998 20.3037 9.69623C21.2214 10.61 22.0763 11.5847 22.8625 12.6137C23.0675 12.1646 23.2354 11.7316 23.3663 11.315C24.0375 9.19248 23.705 7.79498 22.955 7.04498C22.205 6.29498 20.8075 5.96373 18.685 6.63373Z" fill="white"/>
</svg>
