<svg width="20" height="20" viewBox="0 0 20 20" fill="none" xmlns="http://www.w3.org/2000/svg">
<path d="M7.37503 14.0208L10 12.4375L12.625 14.0416L11.9375 11.0416L14.25 9.04163L11.2084 8.77079L10 5.93746L8.7917 8.74996L5.75003 9.02079L8.06253 11.0416L7.37503 14.0208ZM10 14.3958L6.5417 16.4791C6.38892 16.5763 6.2292 16.618 6.06253 16.6041C5.89586 16.5902 5.75003 16.5347 5.62503 16.4375C5.50003 16.3402 5.40281 16.2188 5.33336 16.0733C5.26392 15.9277 5.25003 15.7644 5.2917 15.5833L6.20836 11.6458L3.14586 8.99996C3.00697 8.87496 2.92031 8.73246 2.88586 8.57246C2.85142 8.41246 2.8617 8.25635 2.9167 8.10413C2.9717 7.9519 3.05503 7.8269 3.1667 7.72913C3.27836 7.63135 3.43114 7.56885 3.62503 7.54163L7.6667 7.18746L9.2292 3.47913C9.29864 3.31246 9.40642 3.18746 9.55253 3.10413C9.69864 3.02079 9.84781 2.97913 10 2.97913C10.1523 2.97913 10.3014 3.02079 10.4475 3.10413C10.5936 3.18746 10.7014 3.31246 10.7709 3.47913L12.3334 7.18746L16.375 7.54163C16.5695 7.5694 16.7223 7.6319 16.8334 7.72913C16.9445 7.82635 17.0278 7.95135 17.0834 8.10413C17.1389 8.2569 17.1495 8.41329 17.115 8.57329C17.0806 8.73329 16.9936 8.87551 16.8542 8.99996L13.7917 11.6458L14.7084 15.5833C14.75 15.7638 14.7361 15.9272 14.6667 16.0733C14.5973 16.2194 14.5 16.3408 14.375 16.4375C14.25 16.5341 14.1042 16.5897 13.9375 16.6041C13.7709 16.6186 13.6111 16.5769 13.4584 16.4791L10 14.3958Z" fill="#7C3AED"/>
</svg>
