<svg width="19" height="19" viewBox="0 0 19 19" fill="none" xmlns="http://www.w3.org/2000/svg">
<path d="M6.42801 3.16067C6.97618 1.5565 9.19268 1.50792 9.8426 3.01492L9.8976 3.16158L10.6373 5.32492C10.8069 5.82105 11.0808 6.27505 11.4407 6.6563C11.8006 7.03756 12.2381 7.33719 12.7237 7.535L12.9226 7.60925L15.0859 8.34808C16.6901 8.89625 16.7387 11.1128 15.2326 11.7627L15.0859 11.8177L12.9226 12.5574C12.4263 12.7268 11.9721 13.0007 11.5907 13.3607C11.2093 13.7206 10.9095 14.1581 10.7116 14.6438L10.6373 14.8418L9.89851 17.006C9.35035 18.6102 7.13385 18.6588 6.48485 17.1527L6.42801 17.006L5.68918 14.8427C5.51976 14.3464 5.24585 13.8922 4.88594 13.5108C4.52603 13.1293 4.08849 12.8296 3.60285 12.6317L3.40485 12.5574L1.24151 11.8186C-0.36357 11.2704 -0.412154 9.05392 1.09485 8.40492L1.24151 8.34808L3.40485 7.60925C3.90098 7.43972 4.35498 7.16576 4.73623 6.80586C5.11749 6.44595 5.41712 6.00847 5.61493 5.52292L5.68918 5.32492L6.42801 3.16067ZM8.16326 3.75283L7.42443 5.91617C7.16629 6.6727 6.74634 7.36386 6.19384 7.94154C5.64133 8.51921 4.96955 8.96951 4.22526 9.26108L3.9961 9.3445L1.83276 10.0833L3.9961 10.8222C4.75262 11.0803 5.44379 11.5003 6.02147 12.0528C6.59914 12.6053 7.04944 13.277 7.34101 14.0213L7.42443 14.2505L8.16326 16.4138L8.9021 14.2505C9.16024 13.494 9.58018 12.8028 10.1327 12.2251C10.6852 11.6475 11.357 11.1972 12.1013 10.9056L12.3304 10.8231L14.4938 10.0833L12.3304 9.3445C11.5739 9.08636 10.8827 8.66641 10.3051 8.11391C9.72738 7.5614 9.27708 6.88962 8.98551 6.14533L8.90301 5.91617L8.16326 3.75283ZM15.4966 1.6563e-07C15.6681 -2.16308e-07 15.8361 0.0481051 15.9817 0.138849C16.1272 0.229593 16.2443 0.359336 16.3198 0.513333L16.3638 0.620584L16.6846 1.56108L17.626 1.88192C17.7979 1.9403 17.9485 2.0484 18.0589 2.1925C18.1693 2.3366 18.2343 2.51022 18.2459 2.69135C18.2575 2.87249 18.2151 3.05299 18.124 3.20997C18.0329 3.36696 17.8972 3.49336 17.7342 3.57317L17.626 3.61717L16.6855 3.938L16.3647 4.87942C16.3062 5.05123 16.198 5.20181 16.0539 5.31208C15.9097 5.42235 15.7361 5.48734 15.5549 5.49883C15.3738 5.51031 15.1933 5.46777 15.0364 5.3766C14.8795 5.28542 14.7532 5.14971 14.6734 4.98667L14.6294 4.87942L14.3086 3.93892L13.3672 3.61808C13.1953 3.5597 13.0447 3.4516 12.9343 3.3075C12.8239 3.1634 12.7588 2.98978 12.7473 2.80865C12.7357 2.62751 12.7781 2.44701 12.8692 2.29003C12.9603 2.13304 13.096 2.00664 13.259 1.92683L13.3672 1.88283L14.3077 1.562L14.6285 0.620584C14.6903 0.439473 14.8073 0.28225 14.9629 0.170957C15.1186 0.0596649 15.3052 -0.000114841 15.4966 1.6563e-07Z" fill="#AC63E6"/>
</svg>
